<?xml version="1.0" standalone="no"?>
<!DOCTYPE svg PUBLIC "-//W3C//DTD SVG 20010904//EN"
 "http://www.w3.org/TR/2001/REC-SVG-20010904/DTD/svg10.dtd">
<svg version="1.0" xmlns="http://www.w3.org/2000/svg"
 width="16.000000pt" height="16.000000pt" viewBox="0 0 16.000000 16.000000"
 preserveAspectRatio="xMidYMid meet">
<metadata>
Created by potrace 1.11, written by Peter Selinger 2001-2013
</metadata>
<g transform="translate(0.000000,16.000000) scale(0.006154,-0.006154)"
fill="#000000" stroke="none">
<path d="M0 1300 l0 -1300 1300 0 1300 0 0 1300 0 1300 -1300 0 -1300 0 0
-1300z m1520 1011 c87 -27 180 -84 250 -151 123 -119 180 -247 188 -420 10
-246 -64 -388 -266 -507 -104 -61 -122 -86 -122 -168 l0 -45 -275 0 -275 0 0
79 c0 105 17 226 39 277 29 66 81 108 205 168 130 62 156 89 156 164 0 95
-111 154 -190 100 -42 -29 -62 -66 -68 -130 l-5 -48 -255 0 -255 0 6 83 c18
224 114 397 285 510 78 52 121 71 217 98 93 26 269 21 365 -10z m-78 -1388
c85 -39 172 -136 199 -225 18 -58 12 -168 -11 -231 -27 -73 -100 -149 -177
-185 -50 -23 -71 -27 -153 -27 -84 0 -102 3 -151 28 -67 32 -132 100 -162 165
-32 73 -35 200 -6 277 24 64 100 155 154 183 91 47 220 53 307 15z"/>
</g>
</svg>
